<svg height="25pt" width="25pt" xmlns="http://www.w3.org/2000/svg"><g transform="translate(-5.591 -6.397)"><rect fill="#0a1a2b" height="33.333" rx="1.563" width="33.333" x="5.591" y="6.397" style="fill:#05281f;fill-opacity:1"/><path d="M21.404 11.064h3.924V29.23c-2.013.382-3.491.535-5.096.535-4.791 0-7.288-2.166-7.288-6.32 0-4.002 2.65-6.6 6.753-6.6.637 0 1.121.05 1.707.203zm0 9.143a3.894 3.894 0 0 0-1.325-.204c-1.988 0-3.134 1.223-3.134 3.365 0 2.09 1.096 3.236 3.109 3.236.433 0 .79-.025 1.35-.102v-6.296zm10.168-3.083v9.098c0 3.134-.229 4.638-.917 5.937-.637 1.249-1.478 2.039-3.211 2.905L23.8 33.33c1.733-.815 2.574-1.53 3.109-2.625.561-1.121.739-2.421.739-5.835v-7.748h3.924zm-3.924-6.04h3.924v4.027h-3.924z" style="fill:#fff;fill-opacity:1"/></g></svg>