<svg height="25pt" preserveAspectRatio="xMidYMid" viewBox="0 -35.5 25 25" width="25pt" xmlns="http://www.w3.org/2000/svg"><rect fill="#060f19" height="25" rx="1.171875" stroke-width=".195313" width="25" y="-35.5"/><path d="m250.71574 70.497167c-5.76464-3.999839-18.97528-5.499779-29.30359-3.49986-1.20097-9.999598-6.72542-18.749246-16.33316-26.498935l-5.52445-3.999839-3.84309 5.749769c-4.80387 7.499699-7.2058 17.999277-6.48522 27.998875.24019 3.499859 1.44116 9.749608 5.04406 15.249387-3.36271 1.99992-10.32832 4.499819-19.45567 4.499819h-173.65985l-.4803869 1.99992c-1.681354 9.999597-1.681354 41.248337 18.0145069 65.247377 14.891993 18.24927 36.989789 27.49889 66.053194 27.49889 62.930676 0 109.528206-30.24878 131.385806-84.996579 8.64696.24999 27.14186 0 36.5094-18.749246.2402-.49998.72058-1.49994 2.40194-5.24979l.96077-1.999919zm-110.72917-70.497167h-26.42127v24.998995h26.42127zm0 29.998794h-26.42127v24.998996h26.42127zm-31.22514 0h-26.421281v24.998996h26.421281zm-31.225149 0h-26.421277v24.998996h26.421277zm-31.225146 29.998795h-26.421277v24.998995h26.421277zm31.225146 0h-26.421277v24.998995h26.421277zm31.225149 0h-26.421281v24.998995h26.421281zm31.22514 0h-26.42127v24.998995h26.42127zm31.22515 0h-26.42128v24.998995h26.42128z" fill="#2396ed" transform="matrix(.05859375 0 0 .05859375 5 -28.41238)"/></svg>