<?xml version="1.0" encoding="UTF-8" standalone="no"?>
<svg
   width="25pt"
   height="25pt"
   viewBox="0 0 25 25"
   version="1.1"
   preserveAspectRatio="xMidYMid"
   id="svg8310"
   xmlns="http://www.w3.org/2000/svg"
   xmlns:svg="http://www.w3.org/2000/svg">
  <defs
     id="defs8314" />
  <rect
     fill="#3178c6"
     height="25"
     rx="1.171875"
     width="25"
     id="rect3146"
     x="0"
     y="0"
     style="fill:#ffffff;fill-opacity:1;stroke-width:0.195313" />
  <g
     id="g8308"
     transform="matrix(0.05859375,0,0,0.05859375,5,5)">
    <path
       d="m 119.61681,0.06889051 c -0.55053,0.05004153 -2.30224,0.22518685 -3.87879,0.35029066 C 79.377517,3.6969009 45.319257,23.313177 23.748192,53.463195 11.736461,70.227104 4.0539589,89.242883 1.1511241,109.3846 0.12512219,116.41543 0,118.49215 0,128.02506 c 0,9.53291 0.12512219,11.60964 1.1511241,18.64047 6.9567938,48.06488 41.1651999,88.44839 87.5605079,103.4108 8.308114,2.67723 17.066668,4.50374 27.026388,5.60465 3.87879,0.42536 20.64517,0.42536 24.52395,0 17.19179,-1.90157 31.75602,-6.1551 46.12004,-13.48619 2.20215,-1.12593 2.62757,-1.42618 2.32728,-1.67639 -0.2002,-0.15012 -9.58436,-12.73556 -20.84536,-27.94819 l -20.46999,-27.64794 -25.65005,-37.95649 c -14.11378,-20.86732 -25.725122,-37.93147 -25.825219,-37.93147 -0.100098,-0.025 -0.200196,16.83897 -0.250245,37.43105 -0.07507,36.05492 -0.100098,37.50612 -0.550537,38.35683 -0.650636,1.22602 -1.151125,1.72643 -2.202151,2.27689 -0.800782,0.40033 -1.501466,0.47539 -5.280156,0.47539 h -4.329228 l -1.151124,-0.7256 c -0.750733,-0.47539 -1.301271,-1.10091 -1.676638,-1.82651 l -0.525513,-1.12594 0.05005,-50.16662 0.07507,-50.191651 0.775758,-0.975809 c 0.400391,-0.525436 1.251222,-1.200997 1.851808,-1.526267 1.026002,-0.500415 1.426393,-0.550456 5.755621,-0.550456 5.104985,0 5.955816,0.200166 7.282111,1.65137 0.375367,0.400332 14.263933,21.317683 30.880163,46.513593 16.61622,25.19591 39.33841,59.59945 50.49931,76.48847 l 20.2698,30.70047 1.026,-0.67556 c 9.08387,-5.9049 18.69325,-14.31187 26.30068,-23.06914 16.19081,-18.59043 26.626,-41.25924 30.12943,-65.42929 1.026,-7.03083 1.15112,-9.10756 1.15112,-18.64047 0,-9.53291 -0.12512,-11.60963 -1.15112,-18.64046 C 247.89208,61.319713 213.68367,20.936205 167.28837,5.9737901 159.10538,3.3215894 150.39687,1.4950739 140.63734,0.39416041 138.23499,0.1439528 121.69384,-0.13127557 119.61681,0.06889051 Z M 172.01799,77.483125 c 1.20117,0.600498 2.17712,1.751453 2.52746,2.95245 0.2002,0.65054 0.25025,14.562083 0.2002,45.913095 l -0.0751,44.98733 -7.93275,-12.16009 -7.95777,-12.16009 v -32.70213 c 0,-21.142548 0.1001,-33.027409 0.25024,-33.602887 0.40039,-1.401162 1.27625,-2.502076 2.47742,-3.152615 1.026,-0.525436 1.40137,-0.575478 5.33021,-0.575478 3.70361,0 4.35425,0.05004 5.18006,0.500415 z"
       fill="#000000"
       id="path8306" />
  </g>
</svg>
