<svg height="25pt" preserveAspectRatio="xMidYMid" viewBox="0 0 25 25" width="25pt" xmlns="http://www.w3.org/2000/svg"><rect fill="#fff" height="25" rx="1.171875" stroke-width=".195313" width="25"/><path d="m119.61681.06889051c-.55053.05004153-2.30224.22518685-3.87879.35029066-36.360503 3.27771973-70.418763 22.89399583-91.989828 53.04401383-12.011731 16.763909-19.6942331 35.779688-22.5970679 55.921405-1.02600191 7.03083-1.1511241 9.10755-1.1511241 18.64046s.12512219 11.60964 1.1511241 18.64047c6.9567938 48.06488 41.1651999 88.44839 87.5605079 103.4108 8.308114 2.67723 17.066668 4.50374 27.026388 5.60465 3.87879.42536 20.64517.42536 24.52395 0 17.19179-1.90157 31.75602-6.1551 46.12004-13.48619 2.20215-1.12593 2.62757-1.42618 2.32728-1.67639-.2002-.15012-9.58436-12.73556-20.84536-27.94819l-20.46999-27.64794-25.65005-37.95649c-14.11378-20.86732-25.725122-37.93147-25.825219-37.93147-.100098-.025-.200196 16.83897-.250245 37.43105-.07507 36.05492-.100098 37.50612-.550537 38.35683-.650636 1.22602-1.151125 1.72643-2.202151 2.27689-.800782.40033-1.501466.47539-5.280156.47539h-4.329228l-1.151124-.7256c-.750733-.47539-1.301271-1.10091-1.676638-1.82651l-.525513-1.12594.05005-50.16662.07507-50.191651.775758-.975809c.400391-.525436 1.251222-1.200997 1.851808-1.526267 1.026002-.500415 1.426393-.550456 5.755621-.550456 5.104985 0 5.955816.200166 7.282111 1.65137.375367.400332 14.263933 21.317683 30.880163 46.513593 16.61622 25.19591 39.33841 59.59945 50.49931 76.48847l20.2698 30.70047 1.026-.67556c9.08387-5.9049 18.69325-14.31187 26.30068-23.06914 16.19081-18.59043 26.626-41.25924 30.12943-65.42929 1.026-7.03083 1.15112-9.10756 1.15112-18.64047s-.12512-11.60963-1.15112-18.64046c-6.9568-48.064887-41.16521-88.448395-87.56051-103.4108099-8.18299-2.6522007-16.8915-4.4787162-26.65103-5.57962969-2.40235-.25020761-18.9435-.52543598-21.02053-.3252699zm52.40118 77.41423449c1.20117.600498 2.17712 1.751453 2.52746 2.95245.2002.65054.25025 14.562083.2002 45.913095l-.0751 44.98733-7.93275-12.16009-7.95777-12.16009v-32.70213c0-21.142548.1001-33.027409.25024-33.602887.40039-1.401162 1.27625-2.502076 2.47742-3.152615 1.026-.525436 1.40137-.575478 5.33021-.575478 3.70361 0 4.35425.05004 5.18006.500415z" transform="matrix(.05859375 0 0 .05859375 5 5)"/></svg>