<svg height="25pt" width="25pt" xmlns="http://www.w3.org/2000/svg"><g transform="translate(-5.591 -6.397)"><rect fill="#0a1a2b" height="33.333" rx="1.563" width="33.333" x="5.591" y="6.397" style="fill:#2d3748;fill-opacity:1"/><path d="M26.474 22.951 18.22 5.423a1.324 1.324 0 0 0-1.129-.754 1.31 1.31 0 0 0-1.206.625l-8.952 14.5a1.356 1.356 0 0 0 .016 1.455l4.376 6.779a1.408 1.408 0 0 0 1.58.581l12.703-3.757c.389-.115.707-.39.873-.755a1.36 1.36 0 0 0-.007-1.146zm-1.848.752-10.777 3.188a.452.452 0 0 1-.576-.52l3.85-18.438c.072-.345.549-.4.699-.08l7.129 15.138a.515.515 0 0 1-.325.712z" transform="translate(5.591 6.397)" style="fill:#fff;fill-opacity:1"/></g></svg>