<svg height="25pt" width="25pt" xmlns="http://www.w3.org/2000/svg"><g transform="translate(-5.591371 -6.397054)"><rect fill="#0a1a2b" height="33.333332" rx="1.5625" stroke-width=".260417" width="33.333332" x="5.591371" y="6.397054"/><g stroke-width=".178934"><path d="m22.138951 13.063885c-.824685.0038-1.612241.07336-2.305208.194637-2.041396.356708-2.412034 1.103328-2.412034 2.480224v1.818462h4.824068v.606153h-4.824068-1.810432c-1.402008 0-2.629647.833484-3.013637 2.419054-.442927 1.817432-.462574 2.951538 0 4.849229.342912 1.412569 1.161833 2.419054 2.56384 2.419054h1.658625v-2.179927c0-1.574872 1.377663-2.964038 3.013638-2.964038h4.818446c1.341283 0 2.412035-1.092307 2.412034-2.424615v-4.543372c0-1.293069-1.102898-2.264416-2.412034-2.480224-.828703-.136442-1.688554-.198427-2.513238-.194637zm-2.60882 1.462554c.498292 0 .905215.409052.905215.912012-.000001.501176-.406923.906449-.905215.906449-.50008 0-.905217-.405274-.905217-.906449 0-.502959.405137-.912012.905217-.912012z" fill="#306998"/><path d="m27.665825 18.163361v2.118757c0 1.642644-1.408023 3.025208-3.013636 3.025208h-4.818446c-1.319853 0-2.412034 1.117277-2.412034 2.424615v4.54337c0 1.293074 1.136831 2.053644 2.412034 2.424614 1.527029.4441 2.99137.52436 4.818446 0 1.214479-.34779 2.412035-1.04772 2.412034-2.424614v-1.818459h-4.818446v-.606154h4.818446 2.412035c1.402009 0 1.924455-.967249 2.412035-2.419054.50365-1.49461.48222-2.93192 0-4.849229-.34649-1.380463-1.008243-2.419054-2.412035-2.419054zm-2.710025 11.505798c.500081 0 .905216.405274.905216.906448 0 .50296-.405135.912008-.905216.912008-.498292 0-.905215-.409048-.905215-.912008 0-.501174.406923-.906448.905215-.906448z" fill="#ffd43b"/></g></g></svg>