<?xml version="1.0" encoding="UTF-8" standalone="no"?>

<svg
   version="1.0"
   width="25pt"
   height="25pt"
   id="svg2"
   xmlns="http://www.w3.org/2000/svg"
   xmlns:svg="http://www.w3.org/2000/svg"
   xmlns:rdf="http://www.w3.org/1999/02/22-rdf-syntax-ns#"
   xmlns:cc="http://creativecommons.org/ns#"
   xmlns:dc="http://purl.org/dc/elements/1.1/">
  <defs
     id="defs4" />
  <g
     id="g2303"
     transform="translate(-5.5913706,-6.3970536)">
    <rect
       fill="#3178c6"
       height="33.333332"
       rx="1.5625"
       width="33.333332"
       id="rect3146"
       x="5.5913711"
       y="6.3970542"
       style="fill:#0a1a2b;fill-opacity:1;stroke-width:0.260417" />
    <path
       id="path1948"
       style="fill:#306998;fill-opacity:1;stroke-width:0.178934"
       d="m 22.138951,13.063885 c -0.824685,0.0038 -1.612241,0.07336 -2.305208,0.194637 -2.041396,0.356708 -2.412034,1.103328 -2.412034,2.480224 v 1.818462 h 4.824068 v 0.606153 h -4.824068 -1.810432 c -1.402008,0 -2.629647,0.833484 -3.013637,2.419054 -0.442927,1.817432 -0.462574,2.951538 0,4.849229 0.342912,1.412569 1.161833,2.419054 2.56384,2.419054 h 1.658625 v -2.179927 c 0,-1.574872 1.377663,-2.964038 3.013638,-2.964038 h 4.818446 c 1.341283,0 2.412035,-1.092307 2.412034,-2.424615 v -4.543372 c 0,-1.293069 -1.102898,-2.264416 -2.412034,-2.480224 -0.828703,-0.136442 -1.688554,-0.198427 -2.513238,-0.194637 z m -2.60882,1.462554 c 0.498292,0 0.905215,0.409052 0.905215,0.912012 -10e-7,0.501176 -0.406923,0.906449 -0.905215,0.906449 -0.50008,0 -0.905217,-0.405274 -0.905217,-0.906449 0,-0.502959 0.405137,-0.912012 0.905217,-0.912012 z" />
    <path
       id="path1950"
       style="fill:#ffd43b;fill-opacity:1;stroke-width:0.178934"
       d="m 27.665825,18.163361 v 2.118757 c 0,1.642644 -1.408023,3.025208 -3.013636,3.025208 h -4.818446 c -1.319853,0 -2.412034,1.117277 -2.412034,2.424615 v 4.54337 c 0,1.293074 1.136831,2.053644 2.412034,2.424614 1.527029,0.4441 2.99137,0.52436 4.818446,0 1.214479,-0.34779 2.412035,-1.04772 2.412034,-2.424614 v -1.818459 h -4.818446 v -0.606154 h 4.818446 2.412035 c 1.402009,0 1.924455,-0.967249 2.412035,-2.419054 0.50365,-1.49461 0.48222,-2.93192 0,-4.849229 -0.34649,-1.380463 -1.008243,-2.419054 -2.412035,-2.419054 z M 24.9558,29.669159 c 0.500081,0 0.905216,0.405274 0.905216,0.906448 0,0.50296 -0.405135,0.912008 -0.905216,0.912008 -0.498292,0 -0.905215,-0.409048 -0.905215,-0.912008 0,-0.501174 0.406923,-0.906448 0.905215,-0.906448 z" />
  </g>
</svg>
