<?xml version="1.0" encoding="UTF-8" standalone="no"?>
<svg
   fill="none"
   height="25pt"
   viewBox="0 0 25 25"
   width="25pt"
   version="1.1"
   id="svg3150"
   sodipodi:docname="ts-logo-128.svg"
   inkscape:export-xdpi="96"
   inkscape:export-ydpi="96"
   xmlns:inkscape="http://www.inkscape.org/namespaces/inkscape"
   xmlns:sodipodi="http://sodipodi.sourceforge.net/DTD/sodipodi-0.dtd"
   xmlns="http://www.w3.org/2000/svg"
   xmlns:svg="http://www.w3.org/2000/svg">
  <defs
     id="defs3154" />
  <rect
     fill="#3178c6"
     height="25"
     rx="1.171875"
     width="25"
     id="rect3146"
     x="0"
     y="0"
     style="stroke-width:0.195313" />
  <path
     clip-rule="evenodd"
     d="m 14.504336,19.427343 v 2.739454 c 0.443828,0.228125 0.968711,0.399415 1.574707,0.513476 0.605995,0.11425 1.244687,0.17129 1.916114,0.17129 0.654355,0 1.275976,-0.0627 1.864805,-0.188281 0.589061,-0.125584 1.105273,-0.332422 1.549218,-0.620704 0.44375,-0.288281 0.795117,-0.664843 1.054102,-1.130078 0.258788,-0.465038 0.388281,-1.040038 0.388281,-1.724863 0,-0.496504 -0.07403,-0.93166 -0.221875,-1.305489 -0.14805,-0.373808 -0.361328,-0.70623 -0.640235,-0.997305 -0.278711,-0.291054 -0.613086,-0.552148 -1.002735,-0.783281 -0.389843,-0.231132 -0.829296,-0.449433 -1.31875,-0.654882 -0.358436,-0.148379 -0.679921,-0.292481 -0.964413,-0.432305 -0.284512,-0.139824 -0.526328,-0.2825 -0.725468,-0.428027 -0.199162,-0.145547 -0.352794,-0.299629 -0.460899,-0.462285 -0.1081,-0.162637 -0.162166,-0.3467 -0.162166,-0.552149 0,-0.18834 0.04835,-0.358125 0.1451,-0.509355 0.09673,-0.15123 0.233301,-0.281075 0.409688,-0.389512 0.176387,-0.108418 0.392597,-0.192598 0.648652,-0.25252 0.256055,-0.05994 0.540546,-0.0899 0.853496,-0.0899 0.227695,0 0.46793,0.01713 0.72125,0.05137 0.253125,0.03424 0.507812,0.08703 0.763867,0.158379 0.256055,0.07133 0.504883,0.16121 0.746875,0.269648 0.241797,0.108437 0.46504,0.233984 0.669922,0.37666 V 10.62709 c -0.415434,-0.159805 -0.869145,-0.278223 -1.361334,-0.355274 -0.492186,-0.07705 -1.056835,-0.115566 -1.694218,-0.115566 -0.648652,0 -1.263163,0.0699 -1.843555,0.209726 -0.58037,0.139825 -1.091054,0.358126 -1.532031,0.654883 -0.440976,0.296778 -0.789492,0.674864 -1.045527,1.134278 -0.256055,0.459414 -0.384082,1.008711 -0.384082,1.64791 0,0.816113 0.234707,1.512363 0.704141,2.088769 0.469433,0.576426 1.182089,1.064376 2.138007,1.463867 0.375547,0.154084 0.725489,0.305332 1.049805,0.453712 0.324335,0.148383 0.60457,0.30246 0.840704,0.462265 0.236131,0.1598 0.422421,0.333867 0.558945,0.522188 0.136716,0.188339 0.204883,0.402344 0.204883,0.64205 0,0.176992 -0.04258,0.341055 -0.127933,0.492227 -0.08535,0.151167 -0.214844,0.282422 -0.38838,0.39375 -0.173554,0.111333 -0.389765,0.198438 -0.648672,0.261133 -0.258887,0.0627 -0.561875,0.09413 -0.908965,0.09413 -0.591777,0 -1.177832,-0.1041 -1.758222,-0.3125 -0.580368,-0.208197 -1.118063,-0.520697 -1.613102,-0.937299 z M 9.9028515,12.608281 H 13.476563 V 10.351563 H 3.515625 v 2.256718 H 7.0718555 V 22.65625 h 2.830996 z"
     fill="#ffffff"
     fill-rule="evenodd"
     id="path3148"
     style="stroke-width:0.195313" />
</svg>
