<svg fill="none" height="25pt" viewBox="0 0 25 25" width="25pt" xmlns="http://www.w3.org/2000/svg"><g stroke-width=".195313"><rect fill="#3178c6" height="25" rx="1.171875" width="25"/><path clip-rule="evenodd" d="m14.504336 19.427343v2.739454c.443828.228125.968711.399415 1.574707.513476.605995.11425 1.244687.17129 1.916114.17129.654355 0 1.275976-.0627 1.864805-.188281.589061-.125584 1.105273-.332422 1.549218-.620704.44375-.288281.795117-.664843 1.054102-1.130078.258788-.465038.388281-1.040038.388281-1.724863 0-.496504-.07403-.93166-.221875-1.305489-.14805-.373808-.361328-.70623-.640235-.997305-.278711-.291054-.613086-.552148-1.002735-.783281-.389843-.231132-.829296-.449433-1.31875-.654882-.358436-.148379-.679921-.292481-.964413-.432305-.284512-.139824-.526328-.2825-.725468-.428027-.199162-.145547-.352794-.299629-.460899-.462285-.1081-.162637-.162166-.3467-.162166-.552149 0-.18834.04835-.358125.1451-.509355.09673-.15123.233301-.281075.409688-.389512.176387-.108418.392597-.192598.648652-.25252.256055-.05994.540546-.0899.853496-.0899.227695 0 .46793.01713.72125.05137.253125.03424.507812.08703.763867.158379.256055.07133.504883.16121.746875.269648.241797.108437.46504.233984.669922.37666v-2.559594c-.415434-.159805-.869145-.278223-1.361334-.355274-.492186-.07705-1.056835-.115566-1.694218-.115566-.648652 0-1.263163.0699-1.843555.209726-.58037.139825-1.091054.358126-1.532031.654883-.440976.296778-.789492.674864-1.045527 1.134278-.256055.459414-.384082 1.008711-.384082 1.64791 0 .816113.234707 1.512363.704141 2.088769.469433.576426 1.182089 1.064376 2.138007 1.463867.375547.154084.725489.305332 1.049805.453712.324335.148383.60457.30246.840704.462265.236131.1598.422421.333867.558945.522188.136716.188339.204883.402344.204883.64205 0 .176992-.04258.341055-.127933.492227-.08535.151167-.214844.282422-.38838.39375-.173554.111333-.389765.198438-.648672.261133-.258887.0627-.561875.09413-.908965.09413-.591777 0-1.177832-.1041-1.758222-.3125-.580368-.208197-1.118063-.520697-1.613102-.937299zm-4.6014845-6.819062h3.5737115v-2.256718h-9.960938v2.256718h3.5562305v10.047969h2.830996z" fill="#fff" fill-rule="evenodd"/></g></svg>